<?xml version="1.0" encoding="utf-8"?>
<svg id="master-artboard" viewBox="0 0 1400 520.2297973632812" version="1.1" xmlns="http://www.w3.org/2000/svg" x="0px" y="0px" style="enable-background:new 0 0 1400 980;" width="1400px" height="520.2297973632812px"><rect id="ee-background" x="0" y="0" width="1400" height="520.2297973632812" style="fill: white; fill-opacity: 0; pointer-events: none;"/><g transform="matrix(1.46999990940094, 0, 0, 1.46999990940094, 182.95472717285156, -240.0270757675171)"><metadata id="metadata8"/><defs id="defs6"><style id="ee-google-fonts">@import url(https://fonts.googleapis.com/css?family=Boogaloo:400);</style></defs><g transform="matrix(1.3333333,0,0,-1.3333333,0,666.66667)" id="g10"><g transform="matrix(0.10000000149011613, 0, 0, 0.10000000149011613, 39.671053575998485, -1.1368683772161603e-13)" id="g12"><path id="path54" style="fill: rgb(135, 231, 243); fill-opacity: 1; fill-rule: nonzero; stroke: none;" d="m 1893.95,1234.83 c -33.95,-0.75 -61.96,-24.36 -69.83,-55.79 l -52.81,-1.35 c -7.47,60.09 -34.02,114.22 -73.46,156.16 l 52.26,51.11 c 28.31,-18.91 66.92,-16.2 92.31,8.49 29.19,28.4 29.84,75.09 1.44,104.29 -28.4,29.2 -75.09,29.84 -104.29,1.45 -24.34,-23.69 -28.76,-60.03 -13.14,-88.4 l -54.09,-52.9 c -44.98,37.19 -101.83,60.54 -164.01,63.52 v 56.76 c 33.35,7.07 58.39,36.66 58.39,72.12 0,40.73 -33.02,73.75 -73.75,73.75 -40.73,0 -73.75,-33.02 -73.75,-73.75 0,-33.91 22.91,-62.39 54.08,-71.02 v -58.42 c -64.91,-4.95 -123.59,-32.08 -168.46,-73.9 l -64.85,67.77 c 19.22,28.22 16.79,66.96 -7.81,92.55 -28.22,29.38 -74.91,30.31 -104.28,2.08 -29.37,-28.22 -30.3,-74.9 -2.08,-104.27 23.47,-24.42 59.68,-29.11 88.11,-13.79 l 66.76,-69.79 c -33.68,-40.35 -56.12,-90.37 -62.65,-145.28 l -38.04,4.71 c -2.91,33.97 -29.19,62.47 -64.38,66.83 -40.43,5.01 -77.26,-23.69 -82.27,-64.11 -5.02,-40.42 23.69,-77.26 64.11,-82.28 33.64,-4.17 64.74,15.06 77.13,44.94 l 41.46,-5.15 c 0.42,-65.5 23.43,-125.61 61.63,-172.98 l -62.89,-59.41 c -27.9,19.371 -66.45,17.449 -92.31,-6.661 -29.79,-27.789 -31.41,-74.457 -3.63,-104.238 27.78,-29.789 74.45,-31.422 104.23,-3.629 24.88,23.199 30.04,59.539 14.9,88.246 l 63.37,59.852 c 45.13,-43.508 104.88,-71.918 171.18,-77.16 L 1472,800.641 c -33.41,-6.801 -58.69,-36.18 -58.99,-71.641 -0.33,-40.73 32.42,-74.02 73.14,-74.352 40.73,-0.347 74.02,32.403 74.36,73.133 0.28,33.91 -22.4,62.59 -53.49,71.461 l 0.54,65.297 c 66.38,3 126.7,29.211 173.06,70.723 l 41,-36.453 c -16.88,-29.629 -11.4,-68 15.1,-91.567 30.43,-27.07 77.05,-24.332 104.12,6.11 27.06,30.437 24.33,77.058 -6.11,104.117 -25.34,22.531 -61.86,24.34 -89.01,6.773 l -40.51,36.02 c 42.47,48.878 68.25,112.638 68.32,182.448 l 50.33,1.28 c 7.87,-33.1 37.96,-57.4 73.36,-56.62 40.72,0.9 73,34.65 72.1,75.36 -0.91,40.72 -34.65,73.01 -75.37,72.1" transform="matrix(2.2277059555053706, 0, 0, 2.2277059555053706, -3148.0128967981236, -96.53231031273572)"/><path id="path56" style="fill:#1e6c6c;fill-opacity:1;fill-rule:nonzero;stroke:none" d="m 1112.02,1218.77 c 24.41,-3.03 41.75,-25.28 38.72,-49.69 -3.03,-24.41 -25.27,-41.75 -49.69,-38.72 -24.41,3.04 -41.75,25.28 -38.72,49.69 3.03,24.41 25.27,41.75 49.69,38.72" transform="matrix(2.2277059555053706, 0, 0, 2.2277059555053706, -3148.0128967981236, -96.53231031273572)"/><path id="path58" style="fill:#1e6c6c;fill-opacity:1;fill-rule:nonzero;stroke:none" d="m 1756.12,829.07 c -18.38,16.352 -20.03,44.5 -3.69,62.879 16.35,18.391 44.5,20.039 62.89,3.692 18.38,-16.352 20.04,-44.5 3.69,-62.879 -16.35,-18.391 -44.5,-20.043 -62.89,-3.692" transform="matrix(2.2277059555053706, 0, 0, 2.2277059555053706, -3148.0128967981236, -96.53231031273572)"/><path id="path60" style="fill:#1e6c6c;fill-opacity:1;fill-rule:nonzero;stroke:none" d="m 1822.05,1414.39 c -17.63,-17.16 -45.83,-16.77 -62.99,0.87 -17.15,17.64 -16.76,45.83 0.87,62.99 17.63,17.15 45.84,16.76 62.99,-0.87 17.15,-17.64 16.76,-45.84 -0.87,-62.99" transform="matrix(2.2277059555053706, 0, 0, 2.2277059555053706, -3148.0128967981236, -96.53231031273572)"/><path id="path62" style="fill: rgb(7, 224, 252); fill-opacity: 1; fill-rule: nonzero; stroke: none;" d="m 1703.82,1142.99 c 0,-115.46 -93.59,-209.06 -209.05,-209.06 -115.46,0 -209.06,93.6 -209.06,209.06 0,115.45 93.6,209.05 209.06,209.05 115.46,0 209.05,-93.6 209.05,-209.05" transform="matrix(2.2277059555053706, 0, 0, 2.2277059555053706, -3148.0128967981236, -96.53231031273572)"/><path id="path64" style="fill:#258685;fill-opacity:1;fill-rule:nonzero;stroke:none" d="m 1633.22,1142.99 c 0,-76.47 -61.99,-138.45 -138.45,-138.45 -76.46,0 -138.45,61.98 -138.45,138.45 0,76.46 61.99,138.44 138.45,138.44 76.46,0 138.45,-61.98 138.45,-138.44" transform="matrix(2.2277059555053706, 0, 0, 2.2277059555053706, -3148.0128967981236, -96.53231031273572)"/><path id="path66" style="fill: rgb(3, 117, 132); fill-opacity: 1; fill-rule: nonzero; stroke: none;" d="m 1565.39,1142.99 c 0,-39.01 -31.61,-70.63 -70.62,-70.63 -39,0 -70.62,31.62 -70.62,70.63 0,39 31.62,70.62 70.62,70.62 39.01,0 70.62,-31.62 70.62,-70.62" transform="matrix(2.2277059555053706, 0, 0, 2.2277059555053706, -3148.0128967981236, -96.53231031273572)"/><path id="path68" style="fill:#1e6c6c;fill-opacity:1;fill-rule:nonzero;stroke:none" d="m 1537.51,1550.29 c 0,-24.6 -19.94,-44.54 -44.54,-44.54 -24.6,0 -44.54,19.94 -44.54,44.54 0,24.6 19.94,44.54 44.54,44.54 24.6,0 44.54,-19.94 44.54,-44.54" transform="matrix(2.2277059555053706, 0, 0, 2.2277059555053706, -3148.0128967981236, -96.53231031273572)"/><path id="path70" style="fill:#1e6c6c;fill-opacity:1;fill-rule:nonzero;stroke:none" d="m 1896.57,1116.57 c -24.59,-0.55 -44.97,18.95 -45.52,43.54 -0.54,24.6 18.95,44.97 43.55,45.52 24.59,0.55 44.97,-18.94 45.52,-43.54 0.54,-24.59 -18.96,-44.97 -43.55,-45.52" transform="matrix(2.2277059555053706, 0, 0, 2.2277059555053706, -3148.0128967981236, -96.53231031273572)"/><path id="path72" style="fill:#1e6c6c;fill-opacity:1;fill-rule:nonzero;stroke:none" d="m 1442.22,728.762 c 0.2,24.597 20.31,44.367 44.91,44.168 24.6,-0.2 44.38,-20.309 44.17,-44.91 -0.2,-24.598 -20.31,-44.372 -44.91,-44.18 -24.6,0.211 -44.37,20.32 -44.17,44.922" transform="matrix(2.2277059555053706, 0, 0, 2.2277059555053706, -3148.0128967981236, -96.53231031273572)"/><path id="path74" style="fill:#1e6c6c;fill-opacity:1;fill-rule:nonzero;stroke:none" d="m 1142.4,880.742 c 17.99,16.789 46.18,15.797 62.96,-2.191 16.78,-18 15.79,-46.18 -2.2,-62.961 -17.99,-16.77 -46.18,-15.789 -62.95,2.199 -16.78,17.992 -15.8,46.172 2.19,62.953" transform="matrix(2.2277059555053706, 0, 0, 2.2277059555053706, -3148.0128967981236, -96.53231031273572)"/><path id="path76" style="fill:#1e6c6c;fill-opacity:1;fill-rule:nonzero;stroke:none" d="m 1211.12,1487.04 c 17.05,-17.74 16.48,-45.94 -1.26,-62.98 -17.73,-17.04 -45.93,-16.48 -62.97,1.26 -17.05,17.73 -16.49,45.93 1.25,62.98 17.74,17.04 45.93,16.48 62.98,-1.26" transform="matrix(2.2277059555053706, 0, 0, 2.2277059555053706, -3148.0128967981236, -96.53231031273572)"/><g transform="matrix(10, 0, 0, 10, -172.48283698366959, -172.48283750389874)" id="g78"><path d="M 9.140000343322754 -19.540000915527344 C 8.140000343322754 -19.540000915527344 7.266666889190674 -18.309999465942383 6.519999980926514 -15.850000381469727 C 5.773333549499512 -13.390000343322754 5.400000095367432 -11.210000038146973 5.400000095367432 -9.3100004196167 C 5.400000095367432 -5.323333263397217 6.443333148956299 -3.3299999237060547 8.529999732971191 -3.3299999237060547 C 9.116666793823242 -3.3299999237060547 9.630000114440918 -3.5833332538604736 10.069999694824219 -4.090000152587891 C 10.516666412353516 -4.603333473205566 10.833333015441895 -5.130000114440918 11.020000457763672 -5.670000076293945 C 11.213333129882812 -6.2166666984558105 11.446666717529297 -6.9666666984558105 11.720000267028809 -7.920000076293945 L 16.040000915527344 -7.579999923706055 C 15.446666717529297 -4.793333530426025 14.566666603088379 -2.6633334159851074 13.399999618530273 -1.190000057220459 C 12.233333587646484 0.28333333134651184 10.609999656677246 1.0199999809265137 8.529999732971191 1.0199999809265137 C 6.083333492279053 1.0199999809265137 4.196666717529297 0.09666666388511658 2.869999885559082 -1.75 C 1.5433332920074463 -3.5966665744781494 0.8799999952316284 -5.946666717529297 0.8799999952316284 -8.800000190734863 C 0.8799999952316284 -12.126667022705078 1.5366666316986084 -15.366666793823242 2.8499999046325684 -18.520000457763672 C 3.490000009536743 -20.079999923706055 4.380000114440918 -21.363332748413086 5.519999980926514 -22.3700008392334 C 6.666666507720947 -23.376667022705078 7.976666450500488 -23.8799991607666 9.449999809265137 -23.8799991607666 C 11.256667137145996 -23.8799991607666 12.569999694824219 -23.280000686645508 13.390000343322754 -22.079999923706055 C 13.796667098999023 -21.49333381652832 14.130000114440918 -20.893333435058594 14.390000343322754 -20.280000686645508 C 14.649999618530273 -19.6733341217041 14.83666706085205 -18.893333435058594 14.949999809265137 -17.940000534057617 C 15.149999618530273 -16.420000076293945 15.273333549499512 -14.789999961853027 15.319999694824219 -13.050000190734863 L 10.9399995803833 -13.449999809265137 C 10.9399995803833 -16.376667022705078 10.666666984558105 -18.213333129882812 10.119999885559082 -18.959999084472656 C 9.873332977294922 -19.34666633605957 9.546667098999023 -19.540000915527344 9.140000343322754 -19.540000915527344 ZM 21.165271759033203 -6.119999885559082 C 21.165271759033203 -3.559999942779541 21.7319393157959 -2.2799999713897705 22.865272521972656 -2.2799999713897705 C 23.365272521972656 -2.2799999713897705 23.7852725982666 -2.996666669845581 24.125272750854492 -4.429999828338623 C 24.465272903442383 -5.869999885559082 24.635272979736328 -7.246666431427002 24.635272979736328 -8.5600004196167 C 24.635272979736328 -11.460000038146973 24.158605575561523 -12.90999984741211 23.205272674560547 -12.90999984741211 C 22.59193992614746 -12.90999984741211 22.09860610961914 -12.133333206176758 21.72527313232422 -10.579999923706055 C 21.351940155029297 -9.033333778381348 21.165271759033203 -7.546666622161865 21.165271759033203 -6.119999885559082 M 17.19527244567871 -6.420000076293945 C 17.19527244567871 -8.526666641235352 17.625272750854492 -10.58666706085205 18.485273361206055 -12.600000381469727 C 18.93860626220703 -13.619999885559082 19.57860565185547 -14.453332901000977 20.4052734375 -15.100000381469727 C 21.2319393157959 -15.74666690826416 22.1552734375 -16.06999969482422 23.175273895263672 -16.06999969482422 C 24.18860626220703 -16.06999969482422 25.06527328491211 -15.83666706085205 25.805273056030273 -15.369999885559082 C 26.538604736328125 -14.90999984741211 27.09860610961914 -14.293333053588867 27.485271453857422 -13.520000457763672 C 28.2319393157959 -12.006667137145996 28.60527229309082 -10.353333473205566 28.60527229309082 -8.5600004196167 C 28.60527229309082 -6.0933332443237305 28.101940155029297 -3.9033334255218506 27.095272064208984 -1.9900000095367432 C 26.088605880737305 -0.07666666805744171 24.678606033325195 0.8799999952316284 22.865272521972656 0.8799999952316284 C 19.08527374267578 0.8799999952316284 17.19527244567871 -1.5533332824707031 17.19527244567871 -6.420000076293945 ZM 36.96754837036133 0.5400000214576721 L 32.617549896240234 0.14000000059604645 C 30.93754768371582 -6.613333225250244 29.91754913330078 -11.90333366394043 29.55754852294922 -15.729999542236328 L 33.427547454833984 -15.390000343322754 C 33.81421661376953 -11.223333358764648 34.34754943847656 -7.486666679382324 35.027549743652344 -4.179999828338623 C 35.95421600341797 -7.579999923706055 36.940879821777344 -11.850000381469727 37.987548828125 -16.989999771118164 L 41.64754867553711 -16.68000030517578 C 40.36088180541992 -10.726666450500488 38.800880432128906 -4.986666679382324 36.96754837036133 0.5400000214576721 ZM 43.65188217163086 -16.209999084472656 L 47.531883239746094 -15.829999923706055 L 47.531883239746094 0.47999998927116394 L 43.65188217163086 0.10000000149011612 L 43.65188217163086 -16.209999084472656 M 43.931880950927734 -22.190000534057617 L 47.73188018798828 -21.739999771118164 L 47.391883850097656 -17.940000534057617 L 43.591880798339844 -18.40999984741211 L 43.931880950927734 -22.190000534057617 ZM 54.25965118408203 0.07000000029802322 C 54.03298568725586 -3.943333387374878 53.91965103149414 -7.436666488647461 53.91965103149414 -10.40999984741211 C 53.91965103149414 -13.390000343322754 53.9863166809082 -16.5 54.119651794433594 -19.739999771118164 L 49.979652404785156 -19.15999984741211 L 49.229652404785156 -23.100000381469727 C 51.449649810791016 -23.486665725708008 53.64631652832031 -23.770000457763672 55.81964874267578 -23.950000762939453 L 62.16965103149414 -24.290000915527344 L 62.81964874267578 -20.520000457763672 C 61.57298278808594 -20.453332901000977 60.16965103149414 -20.35333251953125 58.609649658203125 -20.219999313354492 C 58.46965026855469 -16.953332901000977 58.39965057373047 -13.963333129882812 58.39965057373047 -11.25 C 58.39965057373047 -8.529999732971191 58.446319580078125 -4.633333206176758 58.539649963378906 0.4399999976158142 L 54.25965118408203 0.07000000029802322 ZM 69.37438201904297 -12.270000457763672 C 68.4210433959961 -12.270000457763672 67.70771026611328 -11.066666603088379 67.23438262939453 -8.65999984741211 C 67.28104400634766 -7.079999923706055 67.30438232421875 -5.563333511352539 67.30438232421875 -4.110000133514404 C 67.30438232421875 -2.6633334159851074 67.2577133178711 -1.0333333015441895 67.16438293457031 0.7799999713897705 L 63.22438049316406 0.4399999976158142 C 63.291046142578125 -2.886666774749756 63.324378967285156 -4.71999979019165 63.324378967285156 -5.059999942779541 C 63.324378967285156 -9.25333309173584 63.12104415893555 -12.460000038146973 62.714378356933594 -14.680000305175781 L 65.2643814086914 -14.40999984741211 C 65.42437744140625 -13.75 65.60437774658203 -13.170000076293945 65.80438232421875 -12.670000076293945 C 66.91770935058594 -15.050000190734863 68.04104614257812 -16.239999771118164 69.17437744140625 -16.239999771118164 C 70.10104370117188 -16.239999771118164 70.91438293457031 -15.833333015441895 71.6143798828125 -15.020000457763672 L 70.734375 -11.890000343322754 C 70.37438201904297 -12.143333435058594 69.9210433959961 -12.270000457763672 69.37438201904297 -12.270000457763672 ZM 73.0404281616211 -10.020000457763672 C 73.38043212890625 -11.786666870117188 74.027099609375 -13.286666870117188 74.98043060302734 -14.520000457763672 C 75.93376159667969 -15.760000228881836 77.18042755126953 -16.3799991607666 78.72042846679688 -16.3799991607666 C 80.26042938232422 -16.3799991607666 81.3970947265625 -15.739999771118164 82.13043212890625 -14.460000038146973 C 82.87042999267578 -13.180000305175781 83.24043273925781 -11.359999656677246 83.24043273925781 -9 C 83.24043273925781 -6.646666526794434 83.103759765625 -3.3966667652130127 82.83042907714844 0.75 L 79.97042846679688 0.5099999904632568 L 79.70043182373047 -0.5799999833106995 C 78.64042663574219 0.03333333507180214 77.55376434326172 0.3400000035762787 76.4404296875 0.3400000035762787 C 75.3337631225586 0.3400000035762787 74.41709899902344 -0.02666666731238365 73.6904296875 -0.7599999904632568 C 72.96376037597656 -1.5 72.60043334960938 -2.559999942779541 72.60043334960938 -3.940000057220459 C 72.60043334960938 -5.320000171661377 73.28709411621094 -6.510000228881836 74.66043090820312 -7.510000228881836 C 76.027099609375 -8.50333309173584 77.60709381103516 -9.023333549499512 79.40042877197266 -9.069999694824219 L 79.40042877197266 -9.989999771118164 C 79.40042877197266 -11.776666641235352 78.97042846679688 -12.670000076293945 78.11042785644531 -12.670000076293945 C 77.67709350585938 -12.670000076293945 77.28376770019531 -12.369999885559082 76.93042755126953 -11.770000457763672 C 76.5837631225586 -11.170000076293945 76.33042907714844 -10.486666679382324 76.1704330444336 -9.720000267028809 L 73.0404281616211 -10.020000457763672 M 76.0704345703125 -3.740000009536743 C 76.0704345703125 -3.013333320617676 76.50042724609375 -2.6500000953674316 77.36042785644531 -2.6500000953674316 C 77.94709777832031 -2.6500000953674316 78.5704345703125 -2.7866666316986084 79.23043060302734 -3.059999942779541 L 79.2904281616211 -5.909999847412109 C 78.23043060302734 -5.823333263397217 77.42709350585938 -5.556666851043701 76.88043212890625 -5.110000133514404 C 76.3404312133789 -4.670000076293945 76.0704345703125 -4.2133331298828125 76.0704345703125 -3.740000009536743 ZM 88.57012939453125 0.9900000095367432 L 84.97013092041016 -0.07000000029802322 C 86.0101318359375 -2.490000009536743 87.3234634399414 -5.050000190734863 88.9101333618164 -7.75 C 87.55013275146484 -10.263333320617676 86.60013580322266 -13.0600004196167 86.06013488769531 -16.139999389648438 L 89.83013153076172 -15.760000228881836 C 90.14346313476562 -14.180000305175781 90.60679626464844 -12.550000190734863 91.22013092041016 -10.869999885559082 C 92.58013153076172 -13.043333053588867 93.56680297851562 -15.050000190734863 94.18013000488281 -16.889999389648438 L 97.10013580322266 -15.460000038146973 C 96.30680084228516 -12.993332862854004 94.91346740722656 -10.466666221618652 92.92013549804688 -7.880000114440918 C 93.91346740722656 -5.546666622161865 95.18013000488281 -3.4733333587646484 96.72013092041016 -1.659999966621399 L 94.18013000488281 0.75 C 92.88680267333984 -0.9300000071525574 91.76346588134766 -2.7666666507720947 90.81013488769531 -4.760000228881836 C 89.7034683227539 -2.1066665649414062 88.95680236816406 -0.1899999976158142 88.57012939453125 0.9900000095367432 Z" transform="matrix(4.014980316162109, 0, 0, -4.014980316162109, 157.34298706054688, 215.2207794189453)" style="font-variant: normal; fill: rgb(52, 55, 102); fill-opacity: 1; fill-rule: nonzero; stroke: none; white-space: pre;"/>
</g><g transform="scale(10)" id="g84">
</g><path d="M 4791.2666015625 2363.1845703125" style="fill: rgb(37, 134, 133); fill-opacity: 1; stroke: rgb(0, 0, 0); stroke-opacity: 1; stroke-width: 0; paint-order: fill;"/><path d="M -124.49456787109375 2915.129638671875" style="fill: rgb(37, 134, 133); fill-opacity: 1; stroke: rgb(0, 0, 0); stroke-opacity: 1; stroke-width: 0; paint-order: fill;"/><path d="M 5515.6943359375 -1534.9276123046875 L 7688.97802734375 1604.2601318359375" style="fill: rgb(135, 231, 243); fill-opacity: 1; stroke: rgb(0, 0, 0); stroke-opacity: 1; stroke-width: 0; paint-order: fill;"/><path d="M 2514.492919921875 -1431.4378662109375 L 2514.492919921875 -1431.4378662109375" style="fill: rgb(3, 117, 132); fill-opacity: 1; stroke: rgb(0, 0, 0); stroke-opacity: 1; stroke-width: 0; paint-order: fill;"/></g></g></g></svg>